<svg width="1174" height="320" viewBox="0 0 1174 320" fill="none" xmlns="http://www.w3.org/2000/svg">
<path d="M119.333 58.2666C114.933 60.9333 94.2664 72.9333 73.3331 84.9333C52.3998 97.0666 33.0664 108.4 30.3998 110.267C21.1998 116.533 21.3331 115.333 21.3331 183.333C21.3331 248.533 21.3331 247.867 28.2664 254.133C29.8664 255.733 54.1331 270 81.8664 285.867C125.333 310.667 133.2 314.667 137.866 314.667C142.666 314.667 150.533 310.533 195.333 284.933C234.4 262.4 248.266 253.867 251.333 250.133L255.333 245.067V183.6C255.333 113.733 255.733 116.8 244.4 109.6C240.933 107.467 230.266 101.2 220.666 95.7333C189.2 77.5999 176.8 70.3999 162.533 61.8666L148.266 53.3333H137.866C128.133 53.4666 126.666 53.8666 119.333 58.2666ZM149.066 93.3333C153.2 95.4666 169.866 104.933 186 114.267C218.133 133.067 220.533 135.2 222 147.067C222.533 150.933 222.666 169.6 222.4 188.667C222 226.533 221.6 228.133 213.6 234.8C211.6 236.667 194.8 246.667 176.266 257.2C143.6 275.733 142.4 276.267 136.266 275.733C130.133 275.067 118.266 268.667 70.1331 240.267C53.8664 230.667 54.6664 233.467 54.6664 183.2C54.6664 140.8 54.6664 140.4 57.7331 135.867C59.8664 132.667 67.0664 127.6 81.9998 118.8C119.333 97.0666 133.866 89.3333 137.733 89.3333C139.733 89.3333 144.8 91.0666 149.066 93.3333Z" fill="#0027B3"/>
<path d="M105.867 127.067C78.9334 142.8 74.6667 145.6 71.3334 149.333C69.0667 151.867 68.6667 154.533 68.2667 169.733L67.7334 187.067L71.3334 184.8C78.5334 180.133 103.333 166.667 104.8 166.667C107.6 166.667 108 172 108 206C108 235.867 108.267 239.867 110.533 244C112.933 248.8 120.933 255.067 126.4 256.667L129.333 257.467V186.133C129.333 146.8 128.8 114.667 128.267 114.667C127.6 114.667 117.6 120.267 105.867 127.067Z" fill="#0027B3"/>
<path d="M148 184.8V253.467L151.067 252.533C155.867 251.067 160.533 248.4 162.933 245.867C168 240.267 168.533 236 169.333 199.733L170 164.133L187.867 174C197.733 179.467 206.133 184 206.4 184C206.667 184 206.667 176.533 206.4 167.333C206 151.6 205.867 150.533 202.667 147.333C198.8 143.467 152.4 116 149.733 116C148.4 116 148 129.733 148 184.8Z" fill="#0027B3"/>
<path d="M501.333 181.333V282.667H521.333H541.333V199.333C541.333 127.867 541.6 116 543.2 116C544.266 116 545.466 117.067 545.866 118.267C548.266 126.267 584 244.4 589.2 261.333L595.6 282L629.733 282.4L664 282.667V181.333V80H643.333H622.666V163.333C622.666 236.533 622.4 246.667 620.666 246.667C619.6 246.667 618.666 246.4 618.666 246C618.666 245.6 610.4 216.933 600.133 182.267C590 147.733 579.066 110.533 576 99.5999L570.266 80H535.733H501.333V181.333Z" fill="#0027B3"/>
<path d="M757.333 181.333V282.667H778H798.666V181.333V80H778H757.333V181.333Z" fill="#0027B3"/>
<path d="M876 100.667V118.667H902.667H929.333V201.333V284H950H970.667V201.333V118.667H997.333H1024V100.667V82.6667H950H876V100.667Z" fill="#0027B3"/>
<path d="M276 101.333V118.667L302.4 118.933L328.667 119.333L329.067 201.067L329.333 282.8L349.067 282.4L368.667 282L369.067 200.267L369.333 118.667H395.333H421.333V101.333V83.9999H348.667H276V101.333Z" fill="#0027B3"/>
<path d="M1113 10C1106.43 10 1099.93 11.2933 1093.87 13.806C1087.8 16.3188 1082.29 20.0017 1077.64 24.6447C1068.27 34.0215 1063 46.7392 1063 60C1063 73.2608 1068.27 85.9785 1077.64 95.3553C1082.29 99.9983 1087.8 103.681 1093.87 106.194C1099.93 108.707 1106.43 110 1113 110C1126.26 110 1138.98 104.732 1148.36 95.3553C1157.73 85.9785 1163 73.2608 1163 60C1163 53.4339 1161.71 46.9321 1159.19 40.8658C1156.68 34.7995 1153 29.2876 1148.36 24.6447C1143.71 20.0017 1138.2 16.3188 1132.13 13.806C1126.07 11.2933 1119.57 10 1113 10ZM1113 100C1090.95 100 1073 82.05 1073 60C1073 37.95 1090.95 20 1113 20C1135.05 20 1153 37.95 1153 60C1153 82.05 1135.05 100 1113 100ZM1114.25 66.35H1107.05V82.5H1098V38.55H1114.3C1119.45 38.55 1123.45 39.7 1126.3 42C1129.1 44.35 1130.5 47.5 1130.5 51.8C1130.5 54.8 1129.85 57.3 1128.55 59.3C1127.25 61.3 1125.3 62.9 1122.65 64.05L1132.15 82V82.5H1122.45L1114.25 66.35ZM1107.05 59.05H1114.35C1116.6 59.05 1118.35 58.45 1119.6 57.3C1120.85 56.15 1121.45 54.55 1121.45 52.5C1121.45 50.45 1120.9 48.85 1119.7 47.65C1118.55 46.45 1116.75 45.9 1114.3 45.9H1107.05V59.05Z" fill="#0027B3"/>
</svg>
