<svg width="30" height="30" viewBox="0 0 30 30" fill="none" xmlns="http://www.w3.org/2000/svg">
<path d="M16.2847 2.50126C17.1969 2.49776 18.1091 2.50693 19.021 2.52876L19.2635 2.53751C19.5435 2.54751 19.8197 2.56001 20.1535 2.57501C21.4835 2.63751 22.391 2.84751 23.1872 3.15626C24.0122 3.47376 24.7072 3.90376 25.4022 4.59876C26.0377 5.22327 26.5295 5.9787 26.8435 6.81251C27.1522 7.60876 27.3622 8.51751 27.4247 9.84751C27.4397 10.18 27.4522 10.4575 27.4622 10.7375L27.4697 10.98C27.492 11.8915 27.5015 12.8033 27.4985 13.715L27.4997 14.6475V16.285C27.5028 17.1972 27.4932 18.1094 27.471 19.0213L27.4635 19.2638C27.4535 19.5438 27.441 19.82 27.426 20.1538C27.3635 21.4838 27.151 22.3913 26.8435 23.1875C26.5306 24.0222 26.0386 24.7783 25.4022 25.4025C24.7772 26.0379 24.0214 26.5297 23.1872 26.8438C22.391 27.1525 21.4835 27.3625 20.1535 27.425C19.8197 27.44 19.5435 27.4525 19.2635 27.4625L19.021 27.47C18.1091 27.4922 17.1969 27.5018 16.2847 27.4988L15.3522 27.5H13.716C12.8038 27.5031 11.8917 27.4935 10.9797 27.4713L10.7372 27.4638C10.4405 27.453 10.1438 27.4405 9.84724 27.4263C8.51724 27.3638 7.60974 27.1513 6.81224 26.8438C5.9781 26.5304 5.22254 26.0385 4.59849 25.4025C3.9623 24.7779 3.47002 24.022 3.15599 23.1875C2.84724 22.3913 2.63724 21.4838 2.57474 20.1538C2.56082 19.8572 2.54832 19.5605 2.53724 19.2638L2.53099 19.0213C2.50795 18.1094 2.49753 17.1972 2.49974 16.285V13.715C2.49626 12.8033 2.50542 11.8915 2.52724 10.98L2.53599 10.7375C2.54599 10.4575 2.55849 10.18 2.57349 9.84751C2.63599 8.51626 2.84599 7.61001 3.15474 6.81251C3.46896 5.97829 3.9622 5.22307 4.59974 4.60001C5.22336 3.96345 5.97845 3.47073 6.81224 3.15626C7.60974 2.84751 8.51599 2.63751 9.84724 2.57501L10.7372 2.53751L10.9797 2.53126C11.8912 2.50823 12.803 2.49781 13.7147 2.50001L16.2847 2.50126ZM14.9997 8.75126C14.1716 8.73955 13.3494 8.89254 12.581 9.20135C11.8125 9.51015 11.1131 9.96861 10.5233 10.5501C9.93355 11.1316 9.46525 11.8244 9.1456 12.5885C8.82596 13.3525 8.66136 14.1724 8.66136 15.0006C8.66136 15.8288 8.82596 16.6488 9.1456 17.4128C9.46525 18.1768 9.93355 18.8697 10.5233 19.4512C11.1131 20.0327 11.8125 20.4911 12.581 20.7999C13.3494 21.1087 14.1716 21.2617 14.9997 21.25C16.6573 21.25 18.2471 20.5915 19.4192 19.4194C20.5913 18.2473 21.2497 16.6576 21.2497 15C21.2497 13.3424 20.5913 11.7527 19.4192 10.5806C18.2471 9.40849 16.6573 8.75126 14.9997 8.75126ZM14.9997 11.2513C15.4979 11.2421 15.9928 11.3323 16.4557 11.5165C16.9186 11.7008 17.3402 11.9754 17.6957 12.3244C18.0513 12.6734 18.3337 13.0898 18.5265 13.5492C18.7194 14.0086 18.8187 14.5018 18.8188 15C18.8189 15.4982 18.7197 15.9915 18.527 16.4509C18.3344 16.9104 18.052 17.3268 17.6966 17.6759C17.3412 18.0251 16.9197 18.2999 16.4569 18.4843C15.9941 18.6687 15.4991 18.759 15.001 18.75C14.0064 18.75 13.0526 18.3549 12.3493 17.6517C11.6461 16.9484 11.251 15.9946 11.251 15C11.251 14.0055 11.6461 13.0516 12.3493 12.3484C13.0526 11.6451 14.0064 11.25 15.001 11.25L14.9997 11.2513ZM21.5622 6.87626C21.159 6.8924 20.7776 7.06395 20.498 7.35498C20.2184 7.646 20.0622 8.03393 20.0622 8.43751C20.0622 8.84109 20.2184 9.22902 20.498 9.52005C20.7776 9.81108 21.159 9.98262 21.5622 9.99876C21.9766 9.99876 22.3741 9.83414 22.6671 9.54112C22.9601 9.24809 23.1247 8.85066 23.1247 8.43626C23.1247 8.02186 22.9601 7.62443 22.6671 7.33141C22.3741 7.03838 21.9766 6.87376 21.5622 6.87376V6.87626Z" fill="#FAFAFC"/>
</svg>
