<svg width="30" height="30" viewBox="0 0 30 30" fill="none" xmlns="http://www.w3.org/2000/svg">
<path d="M24.7875 10V10.65C24.7991 12.5378 24.4359 14.409 23.7188 16.1553C23.0018 17.9015 21.9452 19.4881 20.6104 20.8229C19.2755 22.1578 17.689 23.2143 15.9427 23.9314C14.1965 24.6484 12.3252 25.0117 10.4375 25C7.69018 25.008 4.99901 24.2224 2.6875 22.7375H3.9375C6.20432 22.7376 8.40542 21.976 10.1875 20.575C9.13117 20.5656 8.10498 20.2218 7.25612 19.593C6.40727 18.9643 5.77937 18.0828 5.4625 17.075C5.7808 17.1258 6.10267 17.1509 6.425 17.15C6.87143 17.1468 7.31602 17.0923 7.75 16.9875C6.62064 16.757 5.6056 16.1434 4.87669 15.2504C4.14778 14.3575 3.74976 13.2402 3.75 12.0875C4.44886 12.473 5.22758 12.6913 6.025 12.725C5.3214 12.2596 4.74492 11.6261 4.3477 10.8819C3.95048 10.1377 3.74505 9.30614 3.75 8.46255C3.75156 7.5844 3.98437 6.72214 4.425 5.96255C5.68966 7.52211 7.26779 8.79865 9.05719 9.7095C10.8466 10.6203 12.8074 11.1452 14.8125 11.25C14.7332 10.8717 14.6913 10.4866 14.6875 10.1C14.6549 9.07114 14.9408 8.05726 15.5059 7.19685C16.0711 6.33645 16.888 5.67145 17.8452 5.29267C18.8024 4.9139 19.8532 4.8398 20.8541 5.0805C21.855 5.3212 22.7572 5.86496 23.4375 6.63755C24.5688 6.41031 25.6517 5.98729 26.6375 5.38755C26.261 6.554 25.4692 7.54153 24.4125 8.16255C25.4171 8.05398 26.3993 7.79263 27.325 7.38755C26.6395 8.38875 25.7951 9.27121 24.825 10H24.7875Z" fill="#2A2F38"/>
</svg>
