<svg width="30" height="30" viewBox="0 0 30 30" fill="none" xmlns="http://www.w3.org/2000/svg">
<path d="M24.7875 9.99998V10.65C24.7991 12.5377 24.4359 14.4089 23.7188 16.1552C23.0018 17.9015 21.9452 19.488 20.6104 20.8229C19.2755 22.1577 17.689 23.2143 15.9427 23.9313C14.1965 24.6484 12.3252 25.0116 10.4375 25C7.69018 25.008 4.99901 24.2223 2.6875 22.7375H3.9375C6.20432 22.7375 8.40542 21.9759 10.1875 20.575C9.13117 20.5655 8.10498 20.2218 7.25612 19.593C6.40727 18.9642 5.77937 18.0827 5.4625 17.075C5.7808 17.1257 6.10267 17.1508 6.425 17.15C6.87143 17.1468 7.31602 17.0922 7.75 16.9875C6.62064 16.757 5.6056 16.1433 4.87669 15.2504C4.14778 14.3575 3.74976 13.2401 3.75 12.0875C4.44886 12.473 5.22758 12.6912 6.025 12.725C5.3214 12.2596 4.74492 11.6261 4.3477 10.8818C3.95048 10.1376 3.74505 9.30608 3.75 8.46248C3.75156 7.58434 3.98437 6.72208 4.425 5.96248C5.68966 7.52205 7.26779 8.79859 9.05719 9.70944C10.8466 10.6203 12.8074 11.1451 14.8125 11.25C14.7332 10.8717 14.6913 10.4865 14.6875 10.1C14.6549 9.07108 14.9408 8.0572 15.5059 7.19679C16.0711 6.33639 16.888 5.67139 17.8452 5.29261C18.8024 4.91383 19.8532 4.83974 20.8541 5.08044C21.855 5.32114 22.7572 5.8649 23.4375 6.63748C24.5688 6.41025 25.6517 5.98723 26.6375 5.38748C26.261 6.55393 25.4692 7.54147 24.4125 8.16248C25.4171 8.05392 26.3993 7.79257 27.325 7.38748C26.6395 8.38868 25.7951 9.27115 24.825 9.99998H24.7875Z" fill="#FAFAFC"/>
</svg>
